<?xml version="1.0" encoding="UTF-8"?>
<svg width="184px" height="31px" viewBox="0 0 184 31" version="1.1" xmlns="http://www.w3.org/2000/svg" xmlns:xlink="http://www.w3.org/1999/xlink">
    <!-- Generator: Sketch 50.2 (55047) - http://www.bohemiancoding.com/sketch -->
    <title>Artboard</title>
    <desc>Created with Sketch.</desc>
    <defs></defs>
    <g id="Artboard" stroke="none" stroke-width="1" fill="none" fill-rule="evenodd">
        <path d="M0,31.9128821 C6.74399947,30.4910661 11.4041397,29.3741627 13.9804209,28.5621718 C18.5919018,27.1087276 22.2448783,25.4590897 24.9563592,24.4793289 C27.9236121,23.4071481 32.1666612,21.2305057 38.1784374,18.4032872 C40.9020438,17.1224294 45.5148851,14.8300576 52.0169615,11.5261715 C57.3484635,8.69713739 65.3470603,5.97284607 76.0127516,3.35329758 C86.678443,0.733749089 97.2355952,0.733749089 107.684208,3.35329758 C115.759793,6.14170259 123.876459,9.51794912 132.034206,13.4820372 C144.270827,19.4281692 144.270827,20.3964861 155.24964,24.4793289 C162.568848,27.2012242 172.152302,29.6790752 184,31.9128821 L0,31.9128821 Z" id="Path-2" stroke="#FFFFFF" fill="#FFFFFF"></path>
    </g>
</svg>
